<svg width="42" height="42" viewBox="0 0 42 42" fill="none" xmlns="http://www.w3.org/2000/svg">
<path d="M21.0001 0.855957C9.86589 0.855957 0.840088 9.88176 0.840088 21.016C0.840088 32.1502 9.86589 41.176 21.0001 41.176C32.1343 41.176 41.1601 32.1502 41.1601 21.016C41.1601 9.88176 32.1343 0.855957 21.0001 0.855957ZM16.0651 29.3719H11.9827V16.2343H16.0651V29.3719ZM13.9987 14.6215C12.7093 14.6215 11.8756 13.708 11.8756 12.5782C11.8756 11.4253 12.7345 10.5391 14.0512 10.5391C15.3679 10.5391 16.1743 11.4253 16.1995 12.5782C16.1995 13.708 15.3679 14.6215 13.9987 14.6215ZM30.9751 29.3719H26.8927V22.0912C26.8927 20.3965 26.3005 19.2457 24.8242 19.2457C23.6965 19.2457 23.0266 20.0248 22.7305 20.7745C22.6213 21.0412 22.594 21.4192 22.594 21.7951V29.3698H18.5095V20.4238C18.5095 18.7837 18.457 17.4124 18.4024 16.2322H21.9493L22.1362 18.0571H22.2181C22.7557 17.2003 24.0724 15.9361 26.2753 15.9361C28.9612 15.9361 30.9751 17.7358 30.9751 21.604V29.3719Z" fill="#F8F8F8"/>
</svg>
