<svg width="42" height="43" viewBox="0 0 42 43" fill="none" xmlns="http://www.w3.org/2000/svg">
<path d="M21 0C9.40313 0 0 9.60393 0 21.4485C0 33.293 9.40313 42.8969 21 42.8969C32.5969 42.8969 42 33.293 42 21.4485C42 9.60393 32.5969 0 21 0ZM31.0922 16.1677C31.1062 16.3928 31.1062 16.6273 31.1062 16.8571C31.1062 23.8853 25.8656 31.9812 16.2891 31.9812C13.3359 31.9812 10.5984 31.1051 8.29219 29.597C8.71406 29.6448 9.11719 29.664 9.54844 29.664C11.9859 29.664 14.2266 28.8214 16.0125 27.3947C13.725 27.3468 11.8031 25.8148 11.1469 23.7082C11.9484 23.8279 12.6703 23.8279 13.4953 23.6125C12.3175 23.368 11.2588 22.7147 10.4991 21.7634C9.73949 20.8121 9.32572 19.6215 9.32812 18.394V18.3269C10.0172 18.7243 10.8281 18.9685 11.6766 19.002C10.9633 18.5165 10.3784 17.8588 9.97365 17.0871C9.5689 16.3154 9.35683 15.4537 9.35625 14.5782C9.35625 13.5872 9.60938 12.6824 10.0641 11.8972C11.3714 13.541 13.0028 14.8853 14.8522 15.843C16.7016 16.8006 18.7275 17.35 20.7984 17.4556C20.0625 13.841 22.7063 10.9157 25.8844 10.9157C27.3844 10.9157 28.7344 11.5573 29.6859 12.5914C30.8625 12.3664 31.9875 11.9163 32.9906 11.3131C32.6016 12.5435 31.7859 13.5824 30.7031 14.2383C31.7531 14.1234 32.7656 13.8266 33.7031 13.4101C32.9953 14.4729 32.1094 15.4161 31.0922 16.1677Z" fill="#F8F8F8"/>
</svg>
